<svg xmlns="http://www.w3.org/2000/svg" version="1.1" width="582px" height="582px" style="shape-rendering:geometricPrecision; text-rendering:geometricPrecision; image-rendering:optimizeQuality; fill-rule:evenodd; clip-rule:evenodd" xmlns:xlink="http://www.w3.org/1999/xlink">
<g><path style="opacity:0.835" fill="#30bae9" d="M 28.5,108.5 C 65.8333,108.5 103.167,108.5 140.5,108.5C 140.5,120.833 140.5,133.167 140.5,145.5C 128.5,145.5 116.5,145.5 104.5,145.5C 104.5,257.5 104.5,369.5 104.5,481.5C 91.1667,481.5 77.8333,481.5 64.5,481.5C 64.5,369.5 64.5,257.5 64.5,145.5C 52.5,145.5 40.5,145.5 28.5,145.5C 28.5,133.167 28.5,120.833 28.5,108.5 Z"/></g>
<g><path style="opacity:0.835" fill="#2fbef0" d="M 235.5,443.5 C 235.5,443.833 235.5,444.167 235.5,444.5C 234.501,333.001 234.167,221.335 234.5,109.5C 209.833,109.5 185.167,109.5 160.5,109.5C 160.5,121.167 160.5,132.833 160.5,144.5C 172.678,144.172 184.678,144.505 196.5,145.5C 196.167,145.5 195.833,145.5 195.5,145.5C 183.5,145.5 171.5,145.5 159.5,145.5C 159.5,133.167 159.5,120.833 159.5,108.5C 184.833,108.5 210.167,108.5 235.5,108.5C 235.5,220.167 235.5,331.833 235.5,443.5 Z"/></g>
<g><path style="opacity:0.835" fill="#2fbef0" d="M 374.5,443.5 C 374.5,443.833 374.5,444.167 374.5,444.5C 373.501,333.001 373.167,221.335 373.5,109.5C 348.833,109.5 324.167,109.5 299.5,109.5C 299.5,121.167 299.5,132.833 299.5,144.5C 311.678,144.172 323.678,144.505 335.5,145.5C 335.167,145.5 334.833,145.5 334.5,145.5C 322.5,145.5 310.5,145.5 298.5,145.5C 298.5,133.167 298.5,120.833 298.5,108.5C 323.833,108.5 349.167,108.5 374.5,108.5C 374.5,220.167 374.5,331.833 374.5,443.5 Z"/></g>
<g><path style="opacity:0.835" fill="#30bbeb" d="M 440.5,108.5 C 451.082,108.18 461.582,108.513 472,109.5C 483.333,141.5 494.667,173.5 506,205.5C 506.5,173.168 506.667,140.835 506.5,108.5C 519.833,108.5 533.167,108.5 546.5,108.5C 546.5,232.833 546.5,357.167 546.5,481.5C 533.167,481.5 519.833,481.5 506.5,481.5C 506.667,409.833 506.5,338.166 506,266.5C 497.717,242.979 489.05,219.646 480,196.5C 479.5,291.499 479.333,386.499 479.5,481.5C 466.5,481.5 453.5,481.5 440.5,481.5C 440.5,357.167 440.5,232.833 440.5,108.5 Z"/></g>
<g><path style="opacity:1" fill="#00affb" d="M 29.5,109.5 C 66.1667,109.5 102.833,109.5 139.5,109.5C 139.5,121.167 139.5,132.833 139.5,144.5C 127.5,144.5 115.5,144.5 103.5,144.5C 103.5,256.5 103.5,368.5 103.5,480.5C 90.8333,480.5 78.1667,480.5 65.5,480.5C 65.5,368.5 65.5,256.5 65.5,144.5C 53.5,144.5 41.5,144.5 29.5,144.5C 29.5,132.833 29.5,121.167 29.5,109.5 Z"/></g>
<g><path style="opacity:1" fill="#00affb" d="M 235.5,444.5 C 247.171,444.333 258.838,444.5 270.5,445C 271.488,456.753 271.821,468.586 271.5,480.5C 234.5,480.5 197.5,480.5 160.5,480.5C 160.5,468.5 160.5,456.5 160.5,444.5C 172.5,444.5 184.5,444.5 196.5,444.5C 196.5,344.833 196.5,245.167 196.5,145.5C 184.678,144.505 172.678,144.172 160.5,144.5C 160.5,132.833 160.5,121.167 160.5,109.5C 185.167,109.5 209.833,109.5 234.5,109.5C 234.167,221.335 234.501,333.001 235.5,444.5 Z"/></g>
<g><path style="opacity:1" fill="#00affb" d="M 374.5,444.5 C 386.171,444.333 397.838,444.5 409.5,445C 410.488,456.753 410.821,468.586 410.5,480.5C 373.5,480.5 336.5,480.5 299.5,480.5C 299.5,468.5 299.5,456.5 299.5,444.5C 311.5,444.5 323.5,444.5 335.5,444.5C 335.5,344.833 335.5,245.167 335.5,145.5C 323.678,144.505 311.678,144.172 299.5,144.5C 299.5,132.833 299.5,121.167 299.5,109.5C 324.167,109.5 348.833,109.5 373.5,109.5C 373.167,221.335 373.501,333.001 374.5,444.5 Z"/></g>
<g><path style="opacity:1" fill="#00affb" d="M 441.5,109.5 C 451.416,109.181 461.25,109.514 471,110.5C 482.474,142.422 493.64,174.422 504.5,206.5C 505.5,206.5 506.5,206.5 507.5,206.5C 507.5,174.167 507.5,141.833 507.5,109.5C 520.167,109.5 532.833,109.5 545.5,109.5C 545.5,233.167 545.5,356.833 545.5,480.5C 532.833,480.5 520.167,480.5 507.5,480.5C 507.667,408.833 507.5,337.166 507,265.5C 498.667,242.5 490.333,219.5 482,196.5C 480.989,195.663 479.822,195.33 478.5,195.5C 478.5,290.5 478.5,385.5 478.5,480.5C 466.167,480.5 453.833,480.5 441.5,480.5C 441.5,356.833 441.5,233.167 441.5,109.5 Z"/></g>
<g><path style="opacity:0.486" fill="#33afd8" d="M 195.5,145.5 C 195.833,145.5 196.167,145.5 196.5,145.5C 196.5,245.167 196.5,344.833 196.5,444.5C 184.5,444.5 172.5,444.5 160.5,444.5C 160.167,444.5 159.833,444.5 159.5,444.5C 171.322,443.505 183.322,443.172 195.5,443.5C 195.5,344.167 195.5,244.833 195.5,145.5 Z"/></g>
<g><path style="opacity:0.486" fill="#33afd8" d="M 334.5,145.5 C 334.833,145.5 335.167,145.5 335.5,145.5C 335.5,245.167 335.5,344.833 335.5,444.5C 323.5,444.5 311.5,444.5 299.5,444.5C 299.167,444.5 298.833,444.5 298.5,444.5C 310.322,443.505 322.322,443.172 334.5,443.5C 334.5,344.167 334.5,244.833 334.5,145.5 Z"/></g>
<g><path style="opacity:0.835" fill="#2fbef0" d="M 159.5,444.5 C 159.833,444.5 160.167,444.5 160.5,444.5C 160.5,456.5 160.5,468.5 160.5,480.5C 197.5,480.5 234.5,480.5 271.5,480.5C 271.5,480.833 271.5,481.167 271.5,481.5C 234.167,481.5 196.833,481.5 159.5,481.5C 159.5,469.167 159.5,456.833 159.5,444.5 Z"/></g>
<g><path style="opacity:0.486" fill="#33afd8" d="M 235.5,444.5 C 235.5,444.167 235.5,443.833 235.5,443.5C 247.747,443.178 259.914,443.512 272,444.5C 272.827,457.007 272.66,469.34 271.5,481.5C 271.5,481.167 271.5,480.833 271.5,480.5C 271.821,468.586 271.488,456.753 270.5,445C 258.838,444.5 247.171,444.333 235.5,444.5 Z"/></g>
<g><path style="opacity:0.835" fill="#2fbef0" d="M 298.5,444.5 C 298.833,444.5 299.167,444.5 299.5,444.5C 299.5,456.5 299.5,468.5 299.5,480.5C 336.5,480.5 373.5,480.5 410.5,480.5C 410.5,480.833 410.5,481.167 410.5,481.5C 373.167,481.5 335.833,481.5 298.5,481.5C 298.5,469.167 298.5,456.833 298.5,444.5 Z"/></g>
<g><path style="opacity:0.486" fill="#33afd8" d="M 374.5,444.5 C 374.5,444.167 374.5,443.833 374.5,443.5C 386.747,443.178 398.914,443.512 411,444.5C 411.827,457.007 411.66,469.34 410.5,481.5C 410.5,481.167 410.5,480.833 410.5,480.5C 410.821,468.586 410.488,456.753 409.5,445C 397.838,444.5 386.171,444.333 374.5,444.5 Z"/></g>
</svg>